<svg xmlns="http://www.w3.org/2000/svg" viewBox="0 0 91.75 46.03"><defs><style>.a{fill:#fff;}</style></defs><title>Asset 1</title><path class="a" d="M84.85,19.17l-.93,1.24A20.68,20.68,0,0,1,80,24.51a6.11,6.11,0,0,1-1.73.95A1.66,1.66,0,0,1,76,23.9a5.2,5.2,0,0,1,.22-1.76c.41-1.4.88-2.78,1.34-4.16.11-.34.25-.67.39-1.05-1,0-1.86,0-2.74,0a1.83,1.83,0,0,0-2,1.43,56.32,56.32,0,0,0-3.15,10,6.14,6.14,0,0,0,0,3.14,1.16,1.16,0,0,1-.86,1.54,1.11,1.11,0,0,1-1.34-1,9.11,9.11,0,0,1,0-2.66c.37-2,.88-4,1.33-6,.08-.34.17-.68.31-1.24-.56.44-.92.77-1.32,1-.87.6-1.76,1.18-2.64,1.76a1.72,1.72,0,0,1-.27.13c-2.06.89-3.37.07-3.47-2.2,0-.13,0-.26-.06-.51l-.75.57c-.83.61-1.64,1.23-2.49,1.81a5.39,5.39,0,0,1-1.25.61,3.31,3.31,0,0,1-4.54-2.66c0-.26-.07-.52-.13-.9-.27.19-.47.33-.66.49a13.13,13.13,0,0,1-4.85,2.85,13.24,13.24,0,0,1-2.73.48,2.6,2.6,0,0,1-2.87-1.94c-.08-.21-.16-.41-.28-.7-.33.29-.59.53-.87.76a18.83,18.83,0,0,1-1.73,1.33A2.41,2.41,0,0,1,35,24.43c-.25-.31-.44-.66-.66-1l-.47-.72-.84.78c-1.24,1.2-2.47,2.4-3.73,3.58a5.21,5.21,0,0,1-1.21.86,1,1,0,0,1-1.2-1.7,5.51,5.51,0,0,1,.76-.63,33.33,33.33,0,0,0,4.69-4.43A2.44,2.44,0,0,0,33,18.38l-.53-1.26c-.71.1-.95.6-1.25,1a25.23,25.23,0,0,1-6.92,6.48,7.16,7.16,0,0,1-1.34.64c-2.06.74-3.12-.86-3-2.36a5.66,5.66,0,0,1,.38-1.74c.77-1.83,1.59-3.64,2.44-5.43a4.06,4.06,0,0,1,.84-1.1,1,1,0,0,1,1.37-.1,1,1,0,0,1,.32,1.23,4.23,4.23,0,0,1-.37.7,25.53,25.53,0,0,0-2.38,5,4.64,4.64,0,0,0-.27,1.25.63.63,0,0,0,.91.69,3.84,3.84,0,0,0,1.06-.53,20.55,20.55,0,0,0,4.64-4.59c.66-.91,1.42-1.75,2.14-2.61a2.86,2.86,0,0,1,.36-.34c1.18-1,2.05-.87,2.81.5a23.4,23.4,0,0,1,1,2.26,4,4,0,0,0,.57-.51c.87-1.13,1.72-2.27,2.59-3.4a8.63,8.63,0,0,1,.81-1,.85.85,0,0,1,1.17-.09.86.86,0,0,1,.38,1.12,5.08,5.08,0,0,1-.69,1.2c-1.16,1.45-2.32,2.89-3.52,4.31-.85,1-.89,1-.35,2.18.82,1.77,1.54,2,3,.67,1.15-1,2.13-2.26,3.19-3.4s1.77-2.07,2.75-3a6,6,0,0,1,4-1.75,2.72,2.72,0,0,1,1.15.24,1.5,1.5,0,0,1,.92,1.87,5.14,5.14,0,0,1-.95,1.82,11,11,0,0,1-4.94,3.21c-.34.12-.71.2-1,.34a.76.76,0,0,0-.38,1.21,1.32,1.32,0,0,0,1.34.67,7.65,7.65,0,0,0,3.56-1.14,16.69,16.69,0,0,0,4.25-3.85,3.76,3.76,0,0,0,.59-1.24A51.25,51.25,0,0,1,60,4.18a14.26,14.26,0,0,1,2.69-3A4.91,4.91,0,0,1,65.18,0a1.83,1.83,0,0,1,2.24,2,9.49,9.49,0,0,1-.55,2.51,21.67,21.67,0,0,1-3.64,6,35.68,35.68,0,0,1-6,5.94,3.83,3.83,0,0,0-1.42,2.08c-.25,1-.52,1.92-.71,2.89a1.81,1.81,0,0,0,.53,1.91c.65.5,1.32.23,2-.08A15.06,15.06,0,0,0,62,19.73a12.74,12.74,0,0,0,2.26-3.26,10.85,10.85,0,0,1,1.06-1.68,1.05,1.05,0,0,1,1.13-.45.92.92,0,0,1,.79,1.16,3.54,3.54,0,0,1-.45,1,25.76,25.76,0,0,0-2.34,4.93,5.27,5.27,0,0,0-.29,1.15c-.07.73.37,1,1.06.78a3.55,3.55,0,0,0,.79-.41,20.08,20.08,0,0,0,4.92-4.87,6.56,6.56,0,0,0,.4-.76,3.78,3.78,0,0,0-.56-.21.72.72,0,0,1-.68-.72,1.06,1.06,0,0,1,.63-1.14,3.66,3.66,0,0,1,1.07-.14.75.75,0,0,0,.77-.5c.29-.67.59-1.33.91-2a41.26,41.26,0,0,1,4.32-7.7,13.94,13.94,0,0,1,4.09-3.72A3.58,3.58,0,0,1,85.27.84a1.56,1.56,0,0,1,.56,2.56c-.59.68-1.36.61-1.7-.23-.19-.47-.47-.55-.84-.4a5.57,5.57,0,0,0-1.21.67,12.38,12.38,0,0,0-2.82,3.06,53.76,53.76,0,0,0-4.39,8.12,2.51,2.51,0,0,0-.09.48c1.37,0,2.69,0,4,0,.24,0,.48-.23.73-.28a2.67,2.67,0,0,1,1.06-.06.84.84,0,0,1,.59,1.17,4.37,4.37,0,0,1-.46.88,21.83,21.83,0,0,0-2.27,5.28c-.11.36-.32.75,0,1.14a1.81,1.81,0,0,0,1.32-.77c1.07-1.22,2.12-2.46,3.12-3.73.67-.86,1.26-1.79,1.86-2.7a3.26,3.26,0,0,1,1.9-1.36c1-.29,1.49.18,1.27,1.19a28.83,28.83,0,0,0-.7,3.19c-.29,2.83-.47,5.68-.69,8.52a3,3,0,0,0,0,.43h.84a5.57,5.57,0,0,1,3,.84,2.53,2.53,0,0,1,1.22,2.81,2.13,2.13,0,0,1-.52.93,1.23,1.23,0,0,1-1.39.2c-.48-.18-.55-.62-.54-1.08,0-.1,0-.2,0-.3.07-1-.16-1.36-1.18-1.55a4.66,4.66,0,0,0-.69-.08c-1,0-1.11.06-1.29,1A30.29,30.29,0,0,1,82.35,41.2,11.61,11.61,0,0,1,79,45a5.05,5.05,0,0,1-3.93,1A3,3,0,0,1,72.53,43a8.4,8.4,0,0,1,.65-3.49,18.83,18.83,0,0,1,5.76-8,21.08,21.08,0,0,1,4.58-3,1,1,0,0,0,.68-.87c.23-2.64.49-5.28.73-7.92A4.43,4.43,0,0,0,84.85,19.17Zm-1,11.52c-.13,0-.2,0-.24,0a5,5,0,0,0-.52.29,25.85,25.85,0,0,0-5.08,4.42A14.07,14.07,0,0,0,74.93,41a7.75,7.75,0,0,0-.31,1.85,1.32,1.32,0,0,0,1.77,1.4,6.18,6.18,0,0,0,1.83-.95,8.85,8.85,0,0,0,2.26-2.74,29,29,0,0,0,3.36-9.08A6.11,6.11,0,0,0,83.9,30.69ZM57.44,13.52l.17.1c.26-.25.54-.48.79-.74a35,35,0,0,0,4.72-5.75c.65-1,1.21-2.05,1.76-3.1a3.49,3.49,0,0,0,.33-1.14c.07-.52-.24-.74-.73-.51a2.91,2.91,0,0,0-.81.56,16.45,16.45,0,0,0-1.41,1.53,33.47,33.47,0,0,0-4.58,8.21C57.58,13,57.52,13.24,57.44,13.52ZM44.54,19.9a8.34,8.34,0,0,0,4.16-2.55,1.22,1.22,0,0,0,.18-.35.38.38,0,0,0-.4-.51,1.28,1.28,0,0,0-.47.13A9.58,9.58,0,0,0,44.54,19.9Z"/><path class="a" d="M18.81.41c1,.11,1.92.14,2.85.35,2.92.63,4.33,2.87,4.07,5.9a7.9,7.9,0,0,1-1.21,3.44,14.69,14.69,0,0,1-6.92,6,7.88,7.88,0,0,1-3.48.7,3.12,3.12,0,0,1-1.05-.23,1,1,0,0,1-.6-1.15.89.89,0,0,1,.73-.83,6.81,6.81,0,0,1,1.07-.17c4.2-.38,7-2.72,8.77-6.39a4.59,4.59,0,0,0,.35-2A3.37,3.37,0,0,0,20.5,2.54a11.75,11.75,0,0,0-4.83.06A20,20,0,0,0,4.79,8.35,8,8,0,0,0,2.72,11.7a2.38,2.38,0,0,0,0,1.55,1.3,1.3,0,0,1-.85,1.88A1.39,1.39,0,0,1,.11,14a4.54,4.54,0,0,1,.22-2.54A12.32,12.32,0,0,1,4.78,5.31,24,24,0,0,1,18.81.41Z"/><path class="a" d="M4.87,25.26a23.77,23.77,0,0,1,1.38-5.83A43.65,43.65,0,0,1,13,7.21a14.4,14.4,0,0,1,1.85-1.93,3.72,3.72,0,0,1,1.3-.68A1,1,0,0,1,17.34,5a1.12,1.12,0,0,1-.06,1.31,8.26,8.26,0,0,1-.86,1A31.62,31.62,0,0,0,8.26,20.62a18.89,18.89,0,0,0-.87,5,6.35,6.35,0,0,1-.05.79A.71.71,0,0,1,6.5,27,1.66,1.66,0,0,1,4.87,25.26Z"/><path class="a" d="M30,7.47A2.1,2.1,0,0,1,28.43,9.4a.77.77,0,0,1-.87-.32,1.79,1.79,0,0,1,.7-2.75A1.14,1.14,0,0,1,30,7.47Z"/><path class="a" d="M69.12,7.76a2.79,2.79,0,0,1,.14-.53,1.66,1.66,0,0,1,2-.94,1.53,1.53,0,0,1,.36,2.1,1.61,1.61,0,0,1-.29.39,1.58,1.58,0,0,1-1.48.6C69.43,9.27,69.12,8.61,69.12,7.76Z"/></svg>